<svg width="506" height="650" viewBox="0 0 506 650" fill="none" xmlns="http://www.w3.org/2000/svg">
    <g clip-path="url(#clip0_30001_14)">
        <path d="M360.57 219.339L360.784 219.896L361.295 219.587L528.841 118.278L429.533 287.018L429.231 287.534L429.791 287.741L613.461 355.569L419.617 383.136L419.025 383.22L419.212 383.788L480.698 569.676L338.288 435.311L337.853 434.9L337.526 435.401L230.527 599.371L246.787 404.255L246.837 403.659L246.241 403.716L51.3301 422.294L214.019 313.354L214.515 313.021L214.099 312.591L78.0478 171.787L264.656 231.058L265.226 231.239L265.303 230.647L290.56 36.4872L360.57 219.339Z" stroke="#BCEC30"/>
    </g>
    <defs>
        <clipPath id="clip0_30001_14">
            <rect width="507" height="650" fill="white"/>
        </clipPath>
    </defs>
</svg>
