<svg width="587" height="798" viewBox="0 0 587 798" fill="none" xmlns="http://www.w3.org/2000/svg">
<path d="M241.293 -10L317.5 78.3799L0.5 153" stroke="#202027" stroke-linecap="round"/>
<path d="M708.182 48.4061C717.611 51.031 980.016 161.965 980.016 161.965L701.611 191.848L877.494 417.66L629.536 263.412L604.272 524.856L534.384 249.531L301.438 380.493L461.905 188.266L177.13 175.289L444.802 95.0267L245.904 -134.041L525.536 -2.49639L589.531 -256.31L618.268 -1.9517L872.98 -177.398L708.182 48.4061Z" fill="#BCEC30" stroke="#202027" stroke-miterlimit="10" stroke-linecap="round"/>
<path d="M231.582 254H355.5L213.5 433" stroke="#202027" stroke-linecap="round"/>
<path d="M371.5 458.046L485.26 379L591.382 797" stroke="#202027" stroke-linecap="round"/>
<path d="M449.659 468L393.5 526.765L473.5 594L449.659 468Z" fill="#BCEC30" stroke="#202027" stroke-linecap="round"/>
<path d="M491.5 663L525.5 787" stroke="#202027" stroke-linecap="round"/>
<path d="M211.74 598.465L211.819 598.681L212.035 598.76L241.059 609.5L212.035 620.24L211.819 620.319L211.74 620.535L201 649.559L190.26 620.535L190.181 620.319L189.965 620.24L160.94 609.5L189.965 598.76L190.181 598.681L190.26 598.465L201 569.44L211.74 598.465Z" stroke="#202027"/>
<path d="M117.527 551.677L117.607 551.893L117.823 551.973L130.059 556.5L117.823 561.027L117.607 561.107L117.527 561.323L113 573.559L108.473 561.323L108.393 561.107L108.177 561.027L95.9404 556.5L108.177 551.973L108.393 551.893L108.473 551.677L113 539.44L117.527 551.677Z" fill="#BCEC30" stroke="#202027"/>
</svg>
