<svg width="128" height="82" viewBox="0 0 128 82" fill="none" xmlns="http://www.w3.org/2000/svg">
<path d="M35.7285 45.9756L35.8086 46.1914L36.0244 46.2715L55.5586 53.5L36.0244 60.7285L35.8086 60.8086L35.7285 61.0244L28.5 80.5586L21.2715 61.0244L21.1914 60.8086L20.9756 60.7285L1.44043 53.5L20.9756 46.2715L21.1914 46.1914L21.2715 45.9756L28.5 26.4404L35.7285 45.9756Z" fill="#BCEC30" stroke="#202027"/>
<path d="M114.758 12.9473L114.838 13.1621L115.053 13.2422L126.559 17.5L115.053 21.7578L114.838 21.8379L114.758 22.0527L110.5 33.5586L106.242 22.0527L106.162 21.8379L105.947 21.7578L94.4404 17.5L105.947 13.2422L106.162 13.1621L106.242 12.9473L110.5 1.44043L114.758 12.9473Z" stroke="#202027"/>
</svg>
