<svg width="106" height="156" viewBox="0 0 106 156" fill="none" xmlns="http://www.w3.org/2000/svg">
    <path d="M77.3232 106.256L77.3825 106.478L77.5898 106.577L95.5074 115.222L76.279 120.324L76.0565 120.383L75.9563 120.59L67.3121 138.508L62.2101 119.279L62.1518 119.057L61.9446 118.957L44.0261 110.312L63.2554 105.21L63.4778 105.152L63.577 104.945L72.2213 87.0264L77.3232 106.256Z" stroke="#BCEC30"/>
    <path d="M46.2172 44.4036L46.2765 44.6251L46.4838 44.7253L56.2506 49.4364L45.7693 52.2177L45.5469 52.2769L45.4467 52.4841L40.7346 62.2509L37.9543 51.7697L37.895 51.5472L37.6888 51.4471L27.9211 46.7349L38.4032 43.9547L38.6247 43.8954L38.7248 43.6891L43.4361 33.9214L46.2172 44.4036Z" stroke="#BCEC30"/>
</svg>
